<?xml version="1.0" encoding="UTF-8" standalone="no"?>
<!DOCTYPE svg PUBLIC "-//W3C//DTD SVG 1.1//EN" "http://www.w3.org/Graphics/SVG/1.1/DTD/svg11.dtd">
<svg width="100%" height="100%" viewBox="0 0 478 581" version="1.1" xmlns="http://www.w3.org/2000/svg" xmlns:xlink="http://www.w3.org/1999/xlink" xml:space="preserve" xmlns:serif="http://www.serif.com/" style="fill-rule:evenodd;clip-rule:evenodd;">
    <g id="ears" transform="matrix(1.33333,0,0,1.33333,0,0)">
        <g id="left-ear">
            <g id="Rectangle">
                <g id="path-2" transform="matrix(1,0,0,1,-1.5,-35.55)">
                    <path d="M81.91,143.39C89.43,139.3 90.72,138.12 94.52,149.27C96.15,160.48 96.73,168.51 82.25,175.56C76.19,180.56 71.96,178.96 69.66,169.69C69.56,160.91 75.28,147.38 81.91,143.39Z" style="fill-rule:nonzero;"/>
                </g>
                <g transform="matrix(1,0,0,1,-1.5,-35.55)">
                    <path d="M81.91,143.39C89.43,139.3 90.72,138.12 94.52,149.27C96.15,160.48 96.73,168.51 82.25,175.56C76.19,180.56 71.96,178.96 69.66,169.69C69.56,160.91 75.28,147.38 81.91,143.39Z" style="fill:url(#_Radial1);fill-rule:nonzero;"/>
                </g>
            </g>
            <g transform="matrix(1,0,0,1,-1.5,-35.55)">
                <path d="M79,153.51C83.32,151.05 84.07,150.33 86.12,156.83C86.94,163.38 87.64,170.37 79.32,174.64C75.81,177.64 73.4,176.74 72.18,171.32C72.15,166.17 75.14,155.92 79,153.51Z" style="fill:rgb(214,120,212);fill-rule:nonzero;stroke:rgb(246,106,35);stroke-opacity:0.75;stroke-width:1px;"/>
            </g>
        </g>
        <g transform="matrix(1,0,0,1,-1.5,-35.55)">
            <path d="M38.94,143.39C31.43,139.33 30.14,138.12 26.35,149.27C24.71,160.48 24.12,168.51 38.64,175.56C44.7,180.56 48.93,178.96 51.24,169.69C51.3,160.91 45.59,147.38 38.94,143.39Z" style="fill:url(#_Radial2);fill-rule:nonzero;"/>
        </g>
        <g transform="matrix(1,0,0,1,-1.5,-35.55)">
            <path d="M41.9,153.51C37.57,151.05 36.83,150.33 34.78,156.83C33.96,163.38 33.25,170.37 41.58,174.64C45.09,177.64 47.49,176.74 48.72,171.32C48.68,166.17 45.72,155.92 41.9,153.51Z" style="fill:rgb(214,120,212);fill-rule:nonzero;stroke:rgb(246,106,35);stroke-opacity:0.75;stroke-width:1px;"/>
        </g>
    </g>
    <g id="face" transform="matrix(1.33333,0,0,1.33333,0,0)">
        <g transform="matrix(1,0,0,1,-1.5,-35.55)">
            <g id="Polygon-2">
                <path d="M60.79,216.21C40.19,210.61 34.58,207.83 32.79,201.58C31.63,194.16 38.66,189.29 38.66,181.75C38.66,178.48 40.3,177.75 43.51,176.02C54.82,167.95 70.29,170.53 77.16,176.37C82.72,179.13 82.59,179.59 82.59,182.11C82.59,190.74 90.21,190.52 88.9,201.58C86.44,208.23 79.13,211.56 60.79,216.21Z" style="fill:url(#_Radial3);fill-rule:nonzero;"/>
            </g>
        </g>
        <g id="Rectangle-2" transform="matrix(1,0,0,1,-1.5,-35.55)">
            <path d="M60.08,172.76L61.85,172.76C62.01,174.54 62.18,176.57 62.34,178.76C63.16,190.47 64.34,209.89 63.03,209.89L58.93,209.89C57.86,198.71 59,184 60.08,172.76Z" style="fill:white;fill-rule:nonzero;"/>
        </g>
    </g>
    <g id="Oval-4" transform="matrix(1.33333,0,0,1.33333,0,0)">
        <ellipse cx="59" cy="163.86" rx="11.5" ry="10.05" style="fill:white;"/>
    </g>
    <g id="Oval-8" transform="matrix(1.33333,0,0,1.33333,0,0)">
        <ellipse id="path-9" cx="59" cy="169.6" rx="10.05" ry="7.19"/>
        <ellipse cx="59" cy="169.6" rx="10.05" ry="7.19" style="fill:white;"/>
    </g>
    <g id="Oval-9" transform="matrix(1.33333,0,0,1.33333,0,0)">
        <circle cx="59" cy="169.6" r="4.31" style="fill:rgb(253,131,195);"/>
    </g>
    <g id="path-11" transform="matrix(1.33333,0,0,1.33333,0,0)">
        <circle cx="53.25" cy="163.86" r="7.19"/>
    </g>
    <g transform="matrix(1.33333,0,0,1.33333,0,0)">
        <circle cx="53.25" cy="163.86" r="7.19" style="fill:white;"/>
    </g>
    <g id="path-13" transform="matrix(1.33333,0,0,1.33333,0,0)">
        <circle cx="64.74" cy="163.86" r="7.19"/>
    </g>
    <g transform="matrix(1.33333,0,0,1.33333,0,0)">
        <circle cx="64.74" cy="163.86" r="7.19" style="fill:white;"/>
    </g>
    <g id="Polygon" transform="matrix(1.33333,0,0,1.33333,-2,-47.4)">
        <path d="M60.51,202.29C57.13,202.29 57.88,198.08 52.86,198.08C51.01,197.64 51.66,193.49 55.76,191.78C59.6,190.33 61.5,190.59 65.21,191.78C68.92,192.97 70.21,197.73 68.13,198.08C62.53,198.08 63.66,202.29 60.51,202.29Z" style="fill:url(#_Radial4);fill-rule:nonzero;"/>
    </g>
    <g id="left-eye" transform="matrix(1.33333,0,0,1.33333,0,0)">
        <g id="Oval-5" transform="matrix(1,0,0,1,-1.5,-35.55)">
            <path d="M71.27,190.79C74.721,190.654 77.486,187.778 77.486,184.325C77.486,180.872 74.721,177.996 71.27,177.86C67.7,177.86 64.94,181.14 64.94,184.71C64.94,184.74 64.939,184.769 64.939,184.799C64.939,188.091 67.648,190.799 70.939,190.799C71.05,190.799 71.16,190.796 71.27,190.79Z" style="fill:white;fill-rule:nonzero;"/>
        </g>
        <g id="Oval-2" transform="matrix(1,0,0,1,0,-0.75)">
            <circle cx="69.66" cy="150.52" r="3.83" style="stroke:rgb(117,58,6);stroke-width:1px;"/>
        </g>
        <g id="Combined-Shape" transform="matrix(1,0,0,1,-1.5,-35.55)">
            <path d="M64.9,185.05C64.833,184.72 64.79,184.386 64.77,184.05C64.906,180.599 67.782,177.834 71.235,177.834C74.688,177.834 77.564,180.599 77.7,184.05C77.698,184.385 77.668,184.72 77.61,185.05C77.669,185.38 77.699,185.715 77.7,186.05C77.564,189.501 74.688,192.266 71.235,192.266C67.782,192.266 64.906,189.501 64.77,186.05C64.789,185.714 64.832,185.38 64.9,185.05ZM64.9,185.05C65.595,187.997 68.247,190.096 71.275,190.096C74.303,190.096 76.955,187.997 77.65,185.05C76.955,182.103 74.303,180.004 71.275,180.004C68.247,180.004 65.595,182.103 64.9,185.05Z" style="fill:rgb(246,106,35);fill-rule:nonzero;"/>
        </g>
        <g id="Oval-7" transform="matrix(1,0,0,1,-1.5,-36.3)">
            <path d="M74.15,184.94C74.497,184.975 74.814,184.726 74.86,184.38C74.901,183.986 74.614,183.627 74.22,183.58C73.828,183.539 73.472,183.828 73.43,184.22C73.42,184.273 73.42,184.327 73.43,184.38C73.441,184.727 73.733,185.006 74.08,185L74.15,184.94Z" style="fill:white;fill-rule:nonzero;"/>
        </g>
        <g transform="matrix(1,0,0,1,-1.5,-36.3)">
            <path d="M72.71,183.51C72.738,183.514 72.766,183.516 72.794,183.516C73.112,183.516 73.383,183.275 73.42,182.96C73.457,182.645 73.42,182.91 73.42,182.89C73.423,182.865 73.424,182.84 73.424,182.815C73.424,182.418 73.097,182.091 72.7,182.091C72.331,182.091 72.018,182.373 71.98,182.74L71.98,182.89C71.991,183.234 72.276,183.51 72.62,183.51C72.626,183.51 72.633,183.51 72.64,183.51L72.71,183.51Z" style="fill:white;fill-rule:nonzero;"/>
        </g>
        <g id="Oval-51" serif:id="Oval-5" transform="matrix(1,0,0,1,-22.6646,-35.8457)">
            <path d="M71.27,190.79C74.721,190.654 77.486,187.778 77.486,184.325C77.486,180.872 74.721,177.996 71.27,177.86C67.7,177.86 64.94,181.14 64.94,184.71C64.94,184.74 64.939,184.769 64.939,184.799C64.939,188.091 67.648,190.799 70.939,190.799C71.05,190.799 71.16,190.796 71.27,190.79Z" style="fill:white;fill-rule:nonzero;"/>
        </g>
        <g id="Oval-21" serif:id="Oval-2" transform="matrix(1,0,0,1,-21.1646,-1.04568)">
            <circle cx="69.66" cy="150.52" r="3.83" style="stroke:rgb(117,58,6);stroke-width:1px;"/>
        </g>
        <g id="Combined-Shape1" serif:id="Combined-Shape" transform="matrix(1,0,0,1,-22.6646,-35.8457)">
            <path d="M64.9,185.05C64.833,184.72 64.79,184.386 64.77,184.05C64.906,180.599 67.782,177.834 71.235,177.834C74.688,177.834 77.564,180.599 77.7,184.05C77.698,184.385 77.668,184.72 77.61,185.05C77.669,185.38 77.699,185.715 77.7,186.05C77.564,189.501 74.688,192.266 71.235,192.266C67.782,192.266 64.906,189.501 64.77,186.05C64.789,185.714 64.832,185.38 64.9,185.05ZM64.9,185.05C65.595,187.997 68.247,190.096 71.275,190.096C74.303,190.096 76.955,187.997 77.65,185.05C76.955,182.103 74.303,180.004 71.275,180.004C68.247,180.004 65.595,182.103 64.9,185.05Z" style="fill:rgb(246,106,35);fill-rule:nonzero;"/>
        </g>
        <g id="Oval-71" serif:id="Oval-7" transform="matrix(1,0,0,1,-22.6646,-36.5957)">
            <path d="M74.15,184.94C74.497,184.975 74.814,184.726 74.86,184.38C74.901,183.986 74.614,183.627 74.22,183.58C73.828,183.539 73.472,183.828 73.43,184.22C73.42,184.273 73.42,184.327 73.43,184.38C73.441,184.727 73.733,185.006 74.08,185L74.15,184.94Z" style="fill:white;fill-rule:nonzero;"/>
        </g>
        <g transform="matrix(1,0,0,1,-22.6646,-36.5957)">
            <path d="M72.71,183.51C72.738,183.514 72.766,183.516 72.794,183.516C73.112,183.516 73.383,183.275 73.42,182.96C73.457,182.645 73.42,182.91 73.42,182.89C73.423,182.865 73.424,182.84 73.424,182.815C73.424,182.418 73.097,182.091 72.7,182.091C72.331,182.091 72.018,182.373 71.98,182.74L71.98,182.89C71.991,183.234 72.276,183.51 72.62,183.51C72.626,183.51 72.633,183.51 72.64,183.51L72.71,183.51Z" style="fill:white;fill-rule:nonzero;"/>
        </g>
    </g>
    <defs>
        <radialGradient id="_Radial1" cx="0" cy="0" r="1" gradientUnits="userSpaceOnUse" gradientTransform="matrix(398.113,273.669,-218.443,690.798,2215.82,6201.53)"><stop offset="0" style="stop-color:rgb(251,234,107);stop-opacity:1"/><stop offset="0" style="stop-color:rgb(249,195,175);stop-opacity:1"/><stop offset="1" style="stop-color:rgb(249,123,67);stop-opacity:1"/></radialGradient>
        <radialGradient id="_Radial2" cx="0" cy="0" r="1" gradientUnits="userSpaceOnUse" gradientTransform="matrix(-397.979,273.098,218.752,690.566,985.62,6197.35)"><stop offset="0" style="stop-color:rgb(251,234,107);stop-opacity:1"/><stop offset="0" style="stop-color:rgb(249,195,175);stop-opacity:1"/><stop offset="1" style="stop-color:rgb(249,123,67);stop-opacity:1"/></radialGradient>
        <radialGradient id="_Radial3" cx="0" cy="0" r="1" gradientUnits="userSpaceOnUse" gradientTransform="matrix(25.57,0,0,51.14,60.81,193.57)"><stop offset="0" style="stop-color:rgb(251,234,107);stop-opacity:1"/><stop offset="0" style="stop-color:rgb(249,195,175);stop-opacity:1"/><stop offset="0.63" style="stop-color:rgb(249,123,67);stop-opacity:1"/><stop offset="1" style="stop-color:rgb(249,123,67);stop-opacity:1"/></radialGradient>
        <radialGradient id="_Radial4" cx="0" cy="0" r="1" gradientUnits="userSpaceOnUse" gradientTransform="matrix(-1.4728,-1.12774e-15,7.52007e-16,-0.9821,59.9512,194.38)"><stop offset="0" style="stop-color:white;stop-opacity:1"/><stop offset="1" style="stop-color:black;stop-opacity:1"/></radialGradient>
    </defs>
</svg>
